inDegrees=no
num_controls=7
num_derivatives=13
num_iterations=81
num_multipliers=7
num_parameters=0
num_slacks=7
num_states=26
objective=5.091052
objective_accelerations=0.632242
objective_balance=0.017056
objective_effort=0.166201
objective_height=4.249409
objective_ligament=0.026144
solver_duration=896.662515
status=Solve_Succeeded
success=true
DataType=double
version=3
OpenSimVersion=4.4-2022-07-23-0e9fedc
endheader
time	/jointset/ground_pelvis/pelvis_tilt/value	/jointset/ground_pelvis/pelvis_tx/value	/jointset/ground_pelvis/pelvis_ty/value	/jointset/hip_l/hip_flexion_l/value	/jointset/hip_l/hip_adduction_l/value	/jointset/hip_l/hip_rotation_l/value	/jointset/back/lumbar_extension/value	/jointset/patellofemoral_l/patellar_flexion_l/value	/jointset/knee_l/knee_flexion_l/value	/jointset/knee_l/knee_adduction_l/value	/jointset/knee_l/knee_rotation_l/value	/jointset/ankle_l/ankle_angle_l/value	/jointset/subtalar_l/subtalar_angle_l/value	/jointset/ground_pelvis/pelvis_tilt/speed	/jointset/ground_pelvis/pelvis_tx/speed	/jointset/ground_pelvis/pelvis_ty/speed	/jointset/hip_l/hip_flexion_l/speed	/jointset/hip_l/hip_adduction_l/speed	/jointset/hip_l/hip_rotation_l/speed	/jointset/back/lumbar_extension/speed	/jointset/patellofemoral_l/patellar_flexion_l/speed	/jointset/knee_l/knee_flexion_l/speed	/jointset/knee_l/knee_adduction_l/speed	/jointset/knee_l/knee_rotation_l/speed	/jointset/ankle_l/ankle_angle_l/speed	/jointset/subtalar_l/subtalar_angle_l/speed	/forceset/tau_hip_flexion_l	/forceset/tau_hip_adduction_l	/forceset/tau_hip_rotation_l	/forceset/tau_knee_flexion_l	/forceset/tau_ankle_angle_l	/forceset/tau_subtalar_angle_l	/forceset/tau_lumbar_extension	lambda_cid13_p0	lambda_cid13_p1	lambda_cid13_p2	lambda_cid13_p3	lambda_cid13_p4	lambda_cid13_p5	lambda_cid14_p0	/jointset/ground_pelvis/pelvis_tilt/accel	/jointset/ground_pelvis/pelvis_tx/accel	/jointset/ground_pelvis/pelvis_ty/accel	/jointset/hip_l/hip_flexion_l/accel	/jointset/hip_l/hip_adduction_l/accel	/jointset/hip_l/hip_rotation_l/accel	/jointset/back/lumbar_extension/accel	/jointset/patellofemoral_l/patellar_flexion_l/accel	/jointset/knee_l/knee_flexion_l/accel	/jointset/knee_l/knee_adduction_l/accel	/jointset/knee_l/knee_rotation_l/accel	/jointset/ankle_l/ankle_angle_l/accel	/jointset/subtalar_l/subtalar_angle_l/accel	gamma_cid13_p0	gamma_cid13_p1	gamma_cid13_p2	gamma_cid13_p3	gamma_cid13_p4	gamma_cid13_p5	gamma_cid14_p0
0	0.04884234141480195	0.1077420318488154	0.9028794502528301	0.1266917050730164	-0.3699754132378614	-0.2198873359118988	-0.2144974744115991	0.205154726925853	0.2051547269256735	-0.1745252537326916	-0.1552907748369209	0.09024399430361882	0.07903313125836274	0	0	0	0	0	0	0	0	0	0	0	0	0	0.1171659007562249	-0.07147864338823016	-0.01026474264061219	-0.2588833519614442	0.201756181514558	-0.07945486247904728	-0.04835087467497332	34.56677211385836	30.1219618918047	-6.987511394140927	-26.31029196348995	-439.6681321610906	-57.73794809048817	-26.08078782158972	-3.025966417556403	-0.8034922294564846	-0.8096039303947793	10.36842022125979	-0.3150930542546863	3.096896679333594	-3.449146091601247	10.06633298772297	10.06633298772589	1.774284655127412	-0.8935441799242099	3.587113604138151	0.6974586148251823	-1.299281133676539e-08	4.50084938418803e-07	-3.819816458647507e-08	4.29795462103682e-08	-6.289703421595695e-09	1.531895431851371e-07	4.539697331372973e-08
0.01	0.0486981681239363	0.1077021390791888	0.9028401651603127	0.1271953266139633	-0.3699901998007916	-0.2197258528136308	-0.2146736725199723	0.2056452976573529	0.2056452976568166	-0.1744382190947795	-0.1553240152961606	0.09041903977648587	0.07906767542576293	-0.02872242041521884	-0.007976635808530337	-0.007832704000340966	0.1003347216573934	-0.002927162590626252	0.03218385595069303	-0.03499030508715195	0.09766072222731996	0.09766072222733221	0.0173442731992774	-0.006569453443938358	0.03480240513099919	0.006881802468742328	0.113613646853767	-0.07585751158466983	-0.009329672710618476	-0.2535658562297495	0.1921314570536983	-0.07270706832214849	-0.04567067961334809	31.81521785107698	27.36764999756973	-6.199417883302319	-24.43516448014807	-440.3506242677209	-63.0573996886873	-26.0810190633816	-2.778546699381338	-0.7944529529786823	-0.7664577175444661	9.807556838840609	-0.2770667288230639	3.26223566009901	-3.486575222518573	9.547919157045508	9.547919157044596	1.705172142033427	-0.5268671332453919	3.395810960155384	0.6794204730846384	-3.045802015321538e-08	7.137446970274132e-07	-2.736885631287834e-08	7.932415984835048e-08	-1.730190369785726e-07	1.890306644697372e-07	7.56499119118029e-08
0.02	0.0482701372595294	0.1075825392121775	0.902723282211242	0.128690607111707	-0.370033365763195	-0.2192459100346196	-0.2151922941802932	0.2070988710741758	0.2070988710741421	-0.1741796070254858	-0.1554205945316733	0.09093591069908041	0.07917021349988967	-0.05677151466480914	-0.01594141947695035	-0.01551957131067604	0.1983317913489561	-0.005675879875739484	0.06369193618781592	-0.06848471038361703	0.1926005371269996	0.1926005371270063	0.0343154859867064	-0.01266775515262036	0.06836508996492673	0.01359878134484723	0.1100613929545022	-0.08023637978021554	-0.00839460277830259	-0.2482483604964675	0.1825067325937751	-0.06595927416403372	-0.04299048454994844	29.10838595642983	24.61717801718053	-5.425269307686497	-22.63075162474128	-440.2502249441745	-68.21844240347289	-26.0814177640958	-2.891301184426208	-0.8011218014379478	-0.7804365923937003	9.900889828093332	-0.2794039931550096	2.961741536620167	-3.149966133461551	9.522151522195768	9.522151522195136	1.699672572751938	-0.7993138328743914	3.339169544719262	0.6644938962931266	-4.792322896966536e-08	9.774044556360234e-07	-1.653954803928161e-08	1.156687734863328e-07	-3.397483705355495e-07	2.248717857543374e-07	1.059028505098761e-07
0.03	0.04756467741597153	0.107383492900058	0.9025300068641402	0.1311545707236758	-0.3701031408797975	-0.2184556978071623	-0.2160380852264656	0.2094888565699283	0.2094888565699513	-0.1737531797052166	-0.1555772257655797	0.09178252689846358	0.07933921387976499	-0.08419883515272662	-0.0238501646798914	-0.02312983932931883	0.2940374316488008	-0.008254898144407571	0.09420984718573736	-0.1004358195036916	0.2849408437523876	0.2849408437523616	0.05087465958801569	-0.01859278112365153	0.1007654644356521	0.02017417837714929	0.1064706419499343	-0.07652039341963529	-0.007500773135647728	-0.2437780249974574	0.1762255726172969	-0.06668998138233845	-0.04030165019419768	27.03781590288465	25.13561635626185	-5.323507259098368	-21.15931510287701	-440.2728703294237	-66.48419064576312	-26.0815776741874	-2.650202992212745	-0.7830758693863461	-0.7505417125471652	9.341871392068533	-0.2436572453123663	3.075750477766439	-3.182031392611618	9.021591193449616	9.021591193445078	1.619907725387657	-0.4792665236586652	3.161592662604295	0.6498435865932175	-5.926866357625894e-08	1.098763344508124e-06	-2.497766386844948e-11	1.364696660272684e-07	-4.64048115729266e-07	2.2658229296124e-07	1.205246523566767e-07
